<?xml version="1.0" encoding="UTF-8" standalone="no"?>
<svg
   xmlns:dc="http://purl.org/dc/elements/1.1/"
   xmlns:cc="http://creativecommons.org/ns#"
   xmlns:rdf="http://www.w3.org/1999/02/22-rdf-syntax-ns#"
   xmlns:svg="http://www.w3.org/2000/svg"
   xmlns="http://www.w3.org/2000/svg"
   xmlns:sodipodi="http://sodipodi.sourceforge.net/DTD/sodipodi-0.dtd"
   xmlns:inkscape="http://www.inkscape.org/namespaces/inkscape"
   width="30.0mm"
   height="30.0mm"
   viewBox="0 0 30.0 30.0"
   version="1.1"
   id="svg1648"
   sodipodi:docname="python_logo.svg"
   inkscape:version="1.0.1 (1.0.1+r74)">
  <defs
     id="defs1642" />
  <sodipodi:namedview
     id="base"
     pagecolor="#ffffff"
     bordercolor="#666666"
     borderopacity="1.0"
     inkscape:pageopacity="0.0"
     inkscape:pageshadow="2"
     inkscape:zoom="7.9195959"
     inkscape:cx="41.820145"
     inkscape:cy="45.405923"
     inkscape:document-units="mm"
     inkscape:current-layer="g1657"
     inkscape:document-rotation="0"
     showgrid="true"
     inkscape:window-width="2536"
     inkscape:window-height="1739"
     inkscape:window-x="4119"
     inkscape:window-y="227"
     inkscape:window-maximized="0">
    <inkscape:grid
       type="xygrid"
       id="grid1684"
       units="mm"
       spacingx="1"
       spacingy="1" />
  </sodipodi:namedview>
  <metadata
     id="metadata1645">
    <rdf:RDF>
      <cc:Work
         rdf:about="">
        <dc:format>image/svg+xml</dc:format>
        <dc:type
           rdf:resource="http://purl.org/dc/dcmitype/StillImage" />
        <dc:title></dc:title>
      </cc:Work>
    </rdf:RDF>
  </metadata>
  <g
     inkscape:label="[fixed] BG"
     inkscape:groupmode="layer"
     sodipodi:insensitive="true"
     id="g1655"
     style="display:inline">
    <rect
       x="0"
       y="0"
       width="30"
       height="30"
       style="display:inline;fill:#ffffff;fill-opacity:1;stroke:none"
       id="rect1653" />
  </g>
  <g
     inkscape:label="F.Cu"
     inkscape:groupmode="layer"
     id="g1657"
     style="display:inline">
    <path
       id="path914"
       style="display:inline;fill:#ffdd55;fill-opacity:1;stroke:none;stroke-width:1"
       inkscape:label="background"
       d="M -1.3300001e-6,-1.43e-6 H 30 V 30 H -1.3300001e-6 Z" />
  </g>
  <g
     inkscape:label="F.Mask"
     inkscape:groupmode="layer"
     id="g1659"
     style="display:inline">
    <path
       id="path920"
       style="display:inline;fill:#366a96;fill-opacity:1;stroke:none;stroke-width:3.77953"
       inkscape:label="yellow_snake"
       d="m 85.128906,30.1875 v 10.837891 c 0,1.050378 -0.113329,2.080085 -0.326172,3.078125 -0.212842,0.99804 -0.526243,1.963576 -0.927734,2.886718 -0.401491,0.923142 -0.891087,1.803222 -1.457031,2.628907 -0.565944,0.825684 -1.20786,1.597067 -1.914063,2.302734 -0.706202,0.705667 -1.476562,1.345113 -2.298828,1.908203 -0.822266,0.56309 -1.697193,1.049313 -2.611328,1.447266 -0.914135,0.397953 -1.867801,0.707712 -2.849609,0.917968 -0.981809,0.210257 -1.990337,0.322266 -3.015625,0.322266 h -24.625 c -0.842812,0 -1.669054,0.08855 -2.466797,0.257813 -0.797743,0.169267 -1.567284,0.418253 -2.302735,0.738281 -1.4709,0.640056 -2.801532,1.563248 -3.919922,2.695312 -1.118389,1.132065 -2.024254,2.473194 -2.652343,3.949219 -0.314045,0.738013 -0.558976,1.510397 -0.72461,2.306641 -0.165634,0.796243 -0.251953,1.617156 -0.251953,2.453125 V 92.15625 c 0,0.826845 0.09029,1.610767 0.261719,2.353516 0.171425,0.742748 0.423139,1.443847 0.746094,2.105468 0.645909,1.323243 1.574386,2.487355 2.707031,3.503906 1.132645,1.01655 2.469479,1.88552 3.929688,2.61914 1.460208,0.73362 3.045227,1.3322 4.673828,1.80664 1.950213,0.56796 3.881105,1.01793 5.826172,1.33399 1.945066,0.31605 3.902938,0.49777 5.910156,0.52343 2.007218,0.0257 4.062552,-0.10302 6.199218,-0.40625 2.136667,-0.30322 4.35604,-0.78057 6.689454,-1.45117 1.551047,-0.44478 3.095531,-1.00271 4.541015,-1.69726 1.445485,-0.69456 2.791571,-1.52628 3.94336,-2.52344 1.151789,-0.997165 2.109336,-2.15911 2.779297,-3.51172 0.33498,-0.676305 0.598095,-1.400708 0.777343,-2.175781 0.179249,-0.775074 0.275391,-1.600022 0.275391,-2.480469 v -9.296875 h -24.625 v -3.103516 h 24.625 12.316406 c 0.895274,0 1.719232,-0.07833 2.482422,-0.228515 0.76319,-0.150183 1.465291,-0.373452 2.113281,-0.664063 1.295979,-0.581221 2.377969,-1.433167 3.314449,-2.517578 0.93649,-1.08441 1.7274,-2.400588 2.43946,-3.910156 0.71205,-1.509568 1.34605,-3.211666 1.96875,-5.068359 0.64322,-1.911438 1.11858,-3.804409 1.43164,-5.720704 0.31306,-1.916295 0.46387,-3.857222 0.45703,-5.865234 -0.007,-2.008012 -0.1718,-4.082944 -0.48828,-6.269531 -0.31648,-2.186588 -0.78454,-4.483525 -1.40039,-6.935547 -0.44251,-1.765457 -0.98651,-3.423555 -1.66407,-4.916016 -0.67755,-1.492461 -1.48974,-2.820514 -2.4707,-3.927734 -0.98096,-1.10722 -2.1297,-1.993783 -3.48242,-2.603516 C 98.386141,30.82404 97.659068,30.589136 96.876953,30.429688 96.094839,30.270239 95.257742,30.1875 94.361328,30.1875 Z M 71.15625,89.033203 c 0.639659,0 1.247435,0.129902 1.800781,0.365235 0.553347,0.235332 1.050784,0.575405 1.46875,0.996093 0.417966,0.420688 0.756717,0.920497 0.990235,1.476563 0.233517,0.556066 0.363281,1.16908 0.363281,1.810547 0,0.643748 -0.129764,1.255273 -0.363281,1.8125 -0.233518,0.557226 -0.572269,1.059374 -0.990235,1.480468 -0.417966,0.421095 -0.915403,0.760742 -1.46875,0.996094 -0.553346,0.235352 -1.161122,0.367188 -1.800781,0.367188 -0.637376,0 -1.245726,-0.131836 -1.798828,-0.367188 -0.553102,-0.235352 -1.051922,-0.574999 -1.470703,-0.996094 -0.418781,-0.421094 -0.757774,-0.923242 -0.992188,-1.480468 -0.234414,-0.557227 -0.363281,-1.168752 -0.363281,-1.8125 0,-0.641467 0.128867,-1.254481 0.363281,-1.810547 0.234414,-0.556066 0.573407,-1.055875 0.992188,-1.476563 0.418781,-0.420688 0.917601,-0.760761 1.470703,-0.996093 0.553102,-0.235333 1.161452,-0.365235 1.798828,-0.365235 z"
       transform="scale(0.26458333)" />
  </g>
  <g
     inkscape:label="F.SilkS"
     id="g1661"
     inkscape:groupmode="layer"
     style="display:inline"
     sodipodi:insensitive="true">
    <path
       id="path1151"
       style="display:inline;fill:#000000;fill-opacity:1;stroke:none;stroke-width:0.136962;stroke-opacity:1"
       inkscape:label="outline"
       d="M 15.049727,0.18655192 C 13.888101,0.19189777 12.772692,0.28767614 11.778092,0.46198731 10.302813,0.72019701 9.2607396,1.1407259 8.5886231,1.92288 7.9164089,2.705146 7.7773029,3.6941386 7.7773029,4.7061725 V 7.0894897 H 6.2290771 c -2.2525251,0 -4.3396346,1.4644933 -4.944401,3.9651323 -0.61694233,2.535729 -0.6455331,4.32847 0,6.98097 0.25862,1.066808 0.7031167,2.038668 1.4257528,2.77399 0.7226356,0.735322 1.7445974,1.190109 2.9078327,1.190109 h 2.0691245 v 2.383317 c 0,1.163732 0.5536504,2.161203 1.311031,2.841169 0.7573804,0.679966 1.6991809,1.10539 2.6587529,1.38493 2.196045,0.639548 4.434435,0.75655 7.064168,0.0011 0.906237,-0.259876 1.845324,-0.649967 2.618961,-1.319815 0.773638,-0.669849 1.35444,-1.689936 1.35444,-2.907316 v -2.293917 h 2.271695 c 1.175528,0 2.187811,-0.487633 2.840655,-1.243852 0.652568,-0.755902 1.01188,-1.686555 1.35392,-2.706294 l 5.3e-4,-10e-4 c 0.743833,-2.211272 0.699899,-4.412381 0.02169,-7.112744 V 11.02474 C 28.927329,10.003867 28.550396,9.0383102 27.870652,8.2708289 27.190787,7.5032107 26.159627,7.0001052 24.966437,7.0001052 H 22.605338 V 4.7061884 c 0,-2.2594322 -1.89239,-3.89667274 -4.010091,-4.2462523 a 0.89772992,0.89772984 0 0 0 -5.29e-4,0 C 17.41865,0.26597697 16.211353,0.18120604 15.049727,0.18655192 Z m 0.0036,0.89761958 c 0.557334,-0.00256 1.126541,0.016983 1.696021,0.059945 0.569479,0.042962 1.139588,0.1097191 1.699637,0.2020548 0.110592,0.018256 0.220037,0.040536 0.328146,0.066663 0.324326,0.078379 0.636242,0.1913882 0.927592,0.33538 0.09712,0.047997 0.191948,0.099288 0.28422,0.1539957 0.184543,0.1094154 0.358762,0.2318687 0.520382,0.366386 0.404048,0.336293 0.728823,0.7476215 0.937927,1.2154297 0.125462,0.2806848 0.209373,0.5815782 0.243396,0.8991698 0.01134,0.1058616 0.01705,0.2135931 0.01705,0.3229776 v 2.7264487 3.4220142 c 0,1.803263 -1.445796,3.280936 -3.258715,3.280936 h -6.515365 c -2.2112304,0 -4.0752033,1.88524 -4.0752033,4.016809 v 2.949691 H 7.6873848 5.6182603 c -0.2368746,0 -0.4614328,-0.02143 -0.6738606,-0.06253 -0.5309251,-0.102708 -0.9862651,-0.32882 -1.3709759,-0.65319 0,0 -5.291e-4,0 -5.291e-4,0 C 3.4189842,20.256548 3.2765571,20.110915 3.1450139,19.951237 3.0391663,19.82275 2.9426873,19.682747 2.8509751,19.536792 c -0.02227,-0.03545 -0.046249,-0.069 -0.067696,-0.10542 -0.1645216,-0.279338 -0.304892,-0.586997 -0.4221826,-0.917257 -0.07832,-0.220528 -0.1461299,-0.450663 -0.2041219,-0.68988 -0.078112,-0.320891 -0.1462014,-0.625967 -0.2041219,-0.91829 0,0 0,-5.3e-4 0,-5.3e-4 -0.00841,-0.04246 -0.013198,-0.08052 -0.021187,-0.122473 C 1.8020743,16.102507 1.7244257,15.483889 1.703772,14.88435 1.695002,14.629749 1.696002,14.377611 1.706352,14.124707 1.721881,13.745351 1.758741,13.363789 1.8164228,12.966638 1.8933318,12.437103 2.007302,11.879901 2.1569705,11.264933 2.1894635,11.130577 2.2263545,11.000638 2.267558,10.874259 2.3908946,10.495979 2.5521251,10.153222 2.7455701,9.8474484 2.810088,9.7454661 2.8782555,9.6477277 2.9496922,9.5539262 3.0925637,9.3663232 3.2489486,9.1947954 3.4168469,9.0402626 3.5007965,8.962996 3.5872348,8.8900668 3.6767793,8.8211545 3.8558686,8.6833296 4.0458778,8.5624476 4.2447035,8.4583859 4.4435289,8.3543242 4.6513358,8.2672565 4.8663709,8.1974199 5.0814062,8.1275834 5.3037284,8.074956 5.5314466,8.0398069 5.7591647,8.0046575 5.9922039,7.9870968 6.2290785,7.9870968 H 8.6744071 15.192355 V 7.1659707 H 8.6744057 V 4.7061725 c 0,-0.1164756 0.00185,-0.2296012 0.0062,-0.3395141 0.00433,-0.1099151 0.011144,-0.216367 0.020672,-0.319877 0.019061,-0.2070119 0.049573,-0.4016245 0.094568,-0.5839436 0.067431,-0.2733448 0.1681525,-0.5196827 0.313159,-0.7410402 0,0 0,-5.292e-4 0,-5.292e-4 C 9.2541457,2.499814 9.44384,2.3037006 9.6898496,2.1300901 9.8538558,2.0143498 10.042927,1.908829 10.260357,1.8127968 c 0.108716,-0.048016 0.224423,-0.09362 0.347783,-0.1369426 0.24672,-0.086645 0.523602,-0.1642567 0.834057,-0.2330607 0.155228,-0.034402 0.318993,-0.06646 0.491443,-0.096635 0.936635,-0.1641524 2.005039,-0.2568697 3.119706,-0.2619995 z M 11.48352,3.0452922 c -0.676973,0 -1.223181,0.5506649 -1.223181,1.2319661 0,0.6788852 0.546208,1.229899 1.223181,1.229899 0.674554,0 1.223698,-0.5510138 1.223698,-1.229899 0,-0.6813012 -0.549144,-1.2319661 -1.223698,-1.2319661 z m 11.040152,4.9418171 h 0.08165 2.361096 c 0.237177,0 0.458667,0.021881 0.665593,0.064079 0.0929,0.018944 0.18206,0.04333 0.269234,0.07028 0.02752,0.0085 0.05417,0.018116 0.08113,0.027389 0.06003,0.020669 0.118914,0.04277 0.176217,0.067179 0.02735,0.011647 0.05491,0.023177 0.08165,0.035657 0.07338,0.034248 0.144568,0.071317 0.213424,0.1116211 0.0048,0.00283 0.01017,0.00489 0.01499,0.00775 h 5.29e-4 c 0.16568,0.098461 0.318283,0.2143887 0.459402,0.3457152 0.07071,0.065799 0.138639,0.1354224 0.203607,0.2087729 0.05847,0.066025 0.113932,0.1359717 0.167947,0.2077392 0.0158,0.020992 0.03107,0.042612 0.04651,0.064079 0.02966,0.041253 0.05797,0.084166 0.0863,0.1271241 0.07427,0.1125931 0.145769,0.2288868 0.211357,0.3524331 0.09881,0.1861119 0.188232,0.3838201 0.269234,0.5916961 0.04051,0.10393 0.07876,0.210166 0.11524,0.318843 0.07301,0.217506 0.138305,0.443756 0.196887,0.677478 0.08147,0.324382 0.153133,0.638752 0.214974,0.944128 0.06184,0.305388 0.113678,0.601634 0.155546,0.890902 0.06284,0.434046 0.102973,0.851468 0.119888,1.257288 0.0056,0.135223 0.0089,0.268807 0.0093,0.401526 5.29e-4,0.132981 -0.0019,0.264403 -0.0067,0.395324 v 5.3e-4 c -0.0048,0.130577 -0.0122,0.260236 -0.02222,0.389123 v 5.29e-4 c -7.94e-4,0.01143 -0.0027,0.02269 -0.0036,0.03411 -0.02008,0.246259 -0.04881,0.490155 -0.08837,0.732254 -0.04142,0.253489 -0.0935,0.50532 -0.15658,0.75706 v 5.3e-4 c -0.03151,0.125709 -0.06586,0.251426 -0.102836,0.377237 v 5.3e-4 c -0.03698,0.125816 -0.07688,0.251994 -0.119372,0.378271 -0.07823,0.233262 -0.157319,0.455443 -0.238747,0.66921 -0.06205,0.162904 -0.125846,0.319274 -0.191719,0.469739 -0.01328,0.03037 -0.02681,0.06059 -0.04031,0.09043 -0.07031,0.155494 -0.143301,0.304533 -0.220141,0.444934 -0.02853,0.05212 -0.05823,0.10251 -0.08785,0.152446 -0.01773,0.02991 -0.03507,0.06081 -0.05323,0.08992 -0.05015,0.08039 -0.101375,0.15844 -0.15503,0.232544 -0.229542,0.317022 -0.493617,0.575252 -0.809218,0.764294 -0.07894,0.04725 -0.16129,0.09023 -0.247014,0.128675 -0.0035,0.0016 -0.0074,0.0026 -0.01085,0.0041 -0.0736,0.03258 -0.150491,0.06141 -0.229444,0.08733 -0.02548,0.0084 -0.05196,0.01561 -0.07803,0.02326 -0.06103,0.01793 -0.123771,0.03357 -0.188102,0.04754 -0.02798,0.0061 -0.05561,0.01277 -0.08423,0.01809 -0.09138,0.01698 -0.184961,0.03124 -0.283187,0.04031 -0.109418,0.0101 -0.22366,0.01499 -0.342098,0.01499 h -3.258715 -6.515365 v 0.821138 h 6.515365 v 2.459798 c 0,0.116476 -0.0064,0.229082 -0.0186,0.338481 v 5.29e-4 c -0.01225,0.109216 -0.03058,0.214914 -0.05426,0.317294 v 5.29e-4 c -0.0237,0.102366 -0.05298,0.201392 -0.08733,0.297139 v 5.29e-4 c -0.03437,0.09574 -0.07409,0.188165 -0.118339,0.277503 -0.04432,0.08942 -0.09332,0.175672 -0.146762,0.258899 -0.05352,0.08341 -0.111211,0.163407 -0.173116,0.240812 v 5.29e-4 c -0.05617,0.07022 -0.116852,0.137124 -0.179317,0.202572 -0.01738,0.01821 -0.03539,0.03589 -0.05323,0.05374 -0.04776,0.04778 -0.09692,0.09428 -0.147795,0.139526 -0.01988,0.01767 -0.03962,0.03541 -0.05994,0.05271 -0.06892,0.05865 -0.139173,0.116165 -0.212907,0.170532 -0.10889,0.08031 -0.224227,0.154421 -0.342098,0.225825 -0.03247,0.01966 -0.06512,0.03886 -0.09818,0.05788 -0.118817,0.06835 -0.239985,0.134057 -0.365352,0.194305 -0.09561,0.04594 -0.192414,0.08926 -0.290939,0.130741 -0.09873,0.04159 -0.198329,0.08101 -0.299206,0.11834 -0.201319,0.07449 -0.406142,0.140629 -0.611332,0.19947 -0.308691,0.08871 -0.609772,0.164631 -0.904338,0.228409 -0.203952,0.04416 -0.403947,0.08045 -0.60203,0.113173 -0.04314,0.0071 -0.08631,0.0141 -0.129191,0.02066 -0.197472,0.03037 -0.39302,0.05658 -0.585494,0.07596 -0.0012,1.22e-4 -0.0024,2.44e-4 -0.0036,5.3e-4 -0.01873,0.0019 -0.03713,0.0029 -0.05581,0.0047 -0.11377,0.01082 -0.227262,0.0208 -0.339514,0.02791 -0.266912,0.01691 -0.529813,0.02397 -0.789616,0.02066 -0.132758,-0.0016 -0.265033,-0.0062 -0.396358,-0.01291 -0.131153,-0.0067 -0.261718,-0.01579 -0.391707,-0.02739 h -5.3e-4 c -0.520465,-0.04646 -1.032718,-0.131435 -1.545642,-0.249598 h -5.29e-4 c -0.256545,-0.05911 -0.513015,-0.126918 -0.771012,-0.202054 -0.323175,-0.09415 -0.639971,-0.206698 -0.941028,-0.338998 -0.136566,-0.06001 -0.26855,-0.12501 -0.397908,-0.19327 -0.02593,-0.01368 -0.0514,-0.02784 -0.077,-0.04186 -0.128258,-0.07024 -0.253609,-0.143356 -0.372587,-0.222207 C 10.058247,26.807015 9.9737003,26.747136 9.8924889,26.6848 H 9.8919597 C 9.8106457,26.62237 9.732775,26.557231 9.6578654,26.489979 9.5922594,26.431079 9.5300116,26.369706 9.4697633,26.307046 9.4470383,26.283396 9.4255323,26.258896 9.4036173,26.234696 9.3636573,26.190616 9.3250193,26.145726 9.287862,26.09982 9.269974,26.0777 9.251848,26.0557 9.234635,26.03316 9.1810868,25.963139 9.1298113,25.891846 9.0831724,25.81766 8.9796521,25.653044 8.8934344,25.478316 8.8273741,25.292628 v -5.3e-4 C 8.7613341,25.106549 8.715308,24.910348 8.6919579,24.702987 v -5.29e-4 C 8.6802925,24.598682 8.674387,24.492482 8.674387,24.383097 v -2.907316 -3.241145 c 0,-1.769468 1.475281,-3.280937 3.259233,-3.280937 h 6.515364 c 2.170193,0 4.074687,-1.875674 4.074687,-4.098974 z M 18.826758,23.556701 c -0.674556,0 -1.223698,0.551014 -1.223698,1.2299 0,0.6813 0.549142,1.231966 1.223698,1.231966 0.676972,0 1.223181,-0.550666 1.223181,-1.231966 0,-0.678886 -0.546209,-1.2299 -1.223181,-1.2299 z" />
  </g>
</svg>
